<svg width="11" height="12" viewBox="0 0 11 12" fill="none" xmlns="http://www.w3.org/2000/svg"><path d="M2.47 12a.4.4 0 01-.27-.1.4.4 0 01-.1-.27V9.58H.88a.4.4 0 01-.27-.1.4.4 0 01-.1-.26v-.37c0-.1.04-.2.1-.26a.37.37 0 01.27-.11h1.24v-.91H.87a.4.4 0 01-.27-.1.4.4 0 01-.1-.27v-.54c0-.11.04-.2.1-.26a.37.37 0 01.27-.11h1.24v-5.1c0-.12.03-.21.1-.28A.37.37 0 012.46.8h4.07c.79 0 1.47.13 2.05.38.58.26 1.04.64 1.36 1.16.32.5.48 1.13.48 1.88s-.16 1.37-.48 1.86c-.32.5-.78.86-1.36 1.12a5.2 5.2 0 01-2.05.37H3.7v.91h3.08c.11 0 .2.04.26.11.07.07.11.15.11.26v.37c0 .1-.04.2-.11.27a.35.35 0 01-.26.1H3.71v2.04c0 .1-.04.2-.12.27-.06.07-.15.1-.27.1h-.85zM3.7 6.29h2.77c.79 0 1.38-.18 1.77-.53.4-.35.6-.86.6-1.54 0-.66-.2-1.17-.58-1.53-.38-.36-.98-.55-1.8-.55H3.7V6.3z" fill="#fff"/></svg>